<svg width="30" height="30" viewBox="0 0 30 30" fill="none" xmlns="http://www.w3.org/2000/svg">
<path d="M0 0H30V30H0V0Z" fill="white"/>
<path d="M25.8 6.05455H21.4V3H19.8V6.05455H10.2V3H8.6V6.05455H4.2C3.88185 6.05495 3.57684 6.193 3.35188 6.43842C3.12692 6.68383 3.00037 7.01657 3 7.36364V25.6909C3.00037 26.038 3.12692 26.3707 3.35188 26.6161C3.57684 26.8615 3.88185 26.9996 4.2 27H25.8C26.1181 26.9996 26.4232 26.8615 26.6481 26.6161C26.8731 26.3707 26.9996 26.038 27 25.6909V7.36364C26.9996 7.01657 26.8731 6.68383 26.6481 6.43842C26.4232 6.193 26.1181 6.05495 25.8 6.05455ZM25.4 25.2545H4.6V7.8H8.6V9.98182H10.2V7.8H19.8V9.98182H21.4V7.8H25.4V25.2545Z" fill="black"/>
<path d="M9.40005 13.0363H7.80005V14.7818H9.40005V13.0363Z" fill="black"/>
<path d="M13.8 13.0363H12.2V14.7818H13.8V13.0363Z" fill="black"/>
<path d="M17.8 13.0363H16.2V14.7818H17.8V13.0363Z" fill="black"/>
<path d="M22.2 13.0363H20.6V14.7818H22.2V13.0363Z" fill="black"/>
<path d="M9.40005 16.9636H7.80005V18.7091H9.40005V16.9636Z" fill="black"/>
<path d="M13.8 16.9636H12.2V18.7091H13.8V16.9636Z" fill="black"/>
<path d="M17.8 16.9636H16.2V18.7091H17.8V16.9636Z" fill="black"/>
<path d="M22.2 16.9636H20.6V18.7091H22.2V16.9636Z" fill="black"/>
<path d="M9.40005 20.8909H7.80005V22.6364H9.40005V20.8909Z" fill="black"/>
<path d="M13.8 20.8909H12.2V22.6364H13.8V20.8909Z" fill="black"/>
<path d="M17.8 20.8909H16.2V22.6364H17.8V20.8909Z" fill="black"/>
<path d="M22.2 20.8909H20.6V22.6364H22.2V20.8909Z" fill="black"/>
</svg>
