<svg width="30" height="30" viewBox="0 0 30 30" fill="none" xmlns="http://www.w3.org/2000/svg">
<rect x="0.5" y="0.5" width="29" height="29" fill="white" stroke="black"/>
<rect x="3" y="3" width="6" height="6" fill="black"/>
<rect x="3" y="21" width="6" height="6" fill="black"/>
<rect x="3" y="12" width="6" height="6" fill="black"/>
<path d="M12.4308 4V4.34411H10.9979V4H12.4308ZM13.8604 4V4.34411H12.4276V4H13.8604ZM15.2901 4V4.34411H13.8572V4H15.2901ZM16.7198 4V4.34411H15.2869V4H16.7198ZM18.1495 4V4.34411H16.7166V4H18.1495ZM19.5792 4V4.34411H18.1463V4H19.5792ZM21.0089 4V4.34411H19.576V4H21.0089ZM12.4308 8V8.34411H10.9979V8H12.4308ZM13.8604 8V8.34411H12.4276V8H13.8604ZM15.2901 8V8.34411H13.8572V8H15.2901ZM16.7198 8V8.34411H15.2869V8H16.7198ZM18.1495 8V8.34411H16.7166V8H18.1495ZM19.5792 8V8.34411H18.1463V8H19.5792ZM21.0089 8V8.34411H19.576V8H21.0089ZM22.4386 8V8.34411H21.0057V8H22.4386ZM23.8683 8V8.34411H22.4354V8H23.8683ZM25.2979 8V8.34411H23.8651V8H25.2979Z" fill="black"/>
<path d="M12.4308 13V13.3441H10.9979V13H12.4308ZM13.8604 13V13.3441H12.4276V13H13.8604ZM15.2901 13V13.3441H13.8572V13H15.2901ZM16.7198 13V13.3441H15.2869V13H16.7198ZM18.1495 13V13.3441H16.7166V13H18.1495ZM19.5792 13V13.3441H18.1463V13H19.5792ZM21.0089 13V13.3441H19.576V13H21.0089ZM12.4308 17V17.3441H10.9979V17H12.4308ZM13.8604 17V17.3441H12.4276V17H13.8604ZM15.2901 17V17.3441H13.8572V17H15.2901ZM16.7198 17V17.3441H15.2869V17H16.7198ZM18.1495 17V17.3441H16.7166V17H18.1495ZM19.5792 17V17.3441H18.1463V17H19.5792ZM21.0089 17V17.3441H19.576V17H21.0089ZM22.4386 17V17.3441H21.0057V17H22.4386ZM23.8683 17V17.3441H22.4354V17H23.8683ZM25.2979 17V17.3441H23.8651V17H25.2979Z" fill="black"/>
<path d="M12.4308 22V22.3441H10.9979V22H12.4308ZM13.8604 22V22.3441H12.4276V22H13.8604ZM15.2901 22V22.3441H13.8572V22H15.2901ZM16.7198 22V22.3441H15.2869V22H16.7198ZM18.1495 22V22.3441H16.7166V22H18.1495ZM19.5792 22V22.3441H18.1463V22H19.5792ZM21.0089 22V22.3441H19.576V22H21.0089ZM12.4308 26V26.3441H10.9979V26H12.4308ZM13.8604 26V26.3441H12.4276V26H13.8604ZM15.2901 26V26.3441H13.8572V26H15.2901ZM16.7198 26V26.3441H15.2869V26H16.7198ZM18.1495 26V26.3441H16.7166V26H18.1495ZM19.5792 26V26.3441H18.1463V26H19.5792ZM21.0089 26V26.3441H19.576V26H21.0089ZM22.4386 26V26.3441H21.0057V26H22.4386ZM23.8683 26V26.3441H22.4354V26H23.8683ZM25.2979 26V26.3441H23.8651V26H25.2979Z" fill="black"/>
</svg>
